<svg width="20" height="20" viewBox="0 0 20 20" fill="none" xmlns="http://www.w3.org/2000/svg">
<path d="M9.83336 7.16682C8.9167 7.16682 8.1667 7.91682 8.1667 8.83349C8.1667 9.75015 8.9167 10.5002 9.83336 10.5002C10.75 10.5002 11.5 9.75015 11.5 8.83349C11.5 7.91682 10.75 7.16682 9.83336 7.16682ZM9.83336 3.00015C12.5584 3.00015 15.6667 5.05015 15.6667 8.95848C15.6667 11.4418 13.8917 14.0585 10.3417 16.7835C10.0417 17.0168 9.62503 17.0168 9.32503 16.7835C5.77503 14.0502 4.00003 11.4418 4.00003 8.95848C4.00003 5.05015 7.10836 3.00015 9.83336 3.00015Z" fill="#9D99E4"/>
</svg>
